<?xml version="1.0" standalone="no"?>
<!DOCTYPE svg PUBLIC "-//W3C//DTD SVG 20010904//EN"
 "http://www.w3.org/TR/2001/REC-SVG-20010904/DTD/svg10.dtd">
<svg version="1.0" xmlns="http://www.w3.org/2000/svg"
 width="512.000000pt" height="512.000000pt" viewBox="0 0 512.000000 512.000000"
 preserveAspectRatio="xMidYMid meet">
<metadata>
Created by potrace 1.14, written by Peter Selinger 2001-2017
</metadata>
<g transform="translate(0.000000,512.000000) scale(0.100000,-0.100000)"
fill="#000000" stroke="none">
<path d="M2379 5116 c-2 -2 -35 -6 -74 -10 -38 -3 -97 -10 -130 -16 -33 -6
-76 -13 -95 -16 -19 -3 -93 -20 -165 -39 -692 -176 -1285 -649 -1621 -1290
-197 -376 -286 -733 -288 -1155 -1 -228 4 -303 33 -467 67 -382 215 -735 442
-1052 39 -54 78 -107 87 -117 9 -11 32 -37 51 -59 38 -46 217 -230 253 -260
12 -11 70 -56 128 -101 326 -249 686 -411 1085 -488 79 -15 107 -19 255 -35
105 -11 429 -6 525 8 44 6 94 14 110 16 51 7 176 34 255 56 624 169 1178 584
1513 1135 92 151 222 430 253 544 37 134 74 278 78 303 8 52 16 100 21 132 29
189 27 534 -4 740 -113 739 -559 1409 -1197 1798 -261 159 -594 288 -859 332
-16 3 -39 7 -51 9 -12 2 -45 7 -74 11 -29 4 -62 9 -74 12 -24 5 -452 14 -457
9z m346 -190 c55 -3 109 -7 120 -10 11 -2 43 -7 70 -10 94 -14 120 -18 126
-22 3 -2 20 -6 38 -9 99 -17 278 -75 419 -136 408 -175 776 -480 1024 -847
234 -347 362 -708 404 -1142 4 -44 4 -344 -1 -387 -12 -121 -19 -169 -36 -253
-66 -339 -203 -656 -404 -935 -80 -112 -133 -174 -258 -300 l-89 -89 -31 18
c-18 10 -219 112 -447 227 -228 114 -427 219 -442 232 -56 49 -68 95 -68 271
l0 159 38 51 c82 109 172 274 231 421 28 70 38 83 76 107 56 34 110 108 132
178 18 60 25 364 11 473 -7 55 -47 149 -68 162 -7 4 -10 106 -10 303 1 163 -1
304 -4 312 -3 8 -7 29 -10 45 -17 115 -86 249 -179 351 -169 185 -437 276
-807 276 -217 0 -361 -23 -520 -84 -225 -87 -391 -264 -450 -482 -31 -110 -30
-99 -30 -413 l1 -281 -36 -64 c-22 -41 -38 -86 -43 -124 -12 -94 -7 -414 8
-459 20 -63 48 -113 85 -153 19 -20 35 -41 35 -48 0 -21 52 -167 87 -244 40
-88 113 -216 161 -283 l34 -47 -4 -163 c-3 -150 -5 -165 -28 -205 -20 -35
-111 -112 -133 -112 -3 0 -36 -17 -74 -38 -37 -22 -108 -60 -158 -87 -49 -27
-103 -56 -120 -65 -16 -9 -106 -59 -200 -110 -93 -51 -178 -98 -188 -104 -15
-9 -32 4 -115 89 -394 404 -617 883 -676 1455 -8 70 -9 353 -2 410 2 19 7 62
11 95 20 177 99 472 171 635 171 389 395 674 758 967 46 37 248 164 326 205
205 107 474 201 665 231 17 3 46 7 65 11 85 14 112 17 230 22 69 4 126 8 128
9 1 1 19 1 40 -1 20 -2 82 -5 137 -8z m75 -754 c310 -55 487 -191 556 -427 15
-52 18 -107 19 -392 l1 -333 31 -32 c18 -18 36 -44 41 -58 5 -14 9 -115 8
-225 -1 -191 -2 -201 -24 -232 -27 -38 -67 -68 -103 -76 -22 -6 -31 -21 -64
-109 -65 -179 -194 -410 -278 -500 -25 -27 -25 -27 -25 -220 1 -212 9 -266 53
-347 54 -98 91 -122 545 -348 383 -192 418 -211 402 -225 -23 -20 -155 -107
-217 -143 -207 -120 -510 -234 -725 -271 -14 -2 -36 -7 -50 -9 -59 -12 -76
-15 -124 -20 -28 -3 -64 -7 -81 -10 -41 -6 -374 -6 -404 0 -13 2 -49 7 -80 10
-376 41 -750 185 -1093 421 -66 45 -66 43 37 99 91 49 159 86 275 150 52 29
131 71 175 95 262 140 312 180 362 287 33 72 39 122 38 323 l-1 175 -72 105
c-39 58 -89 143 -112 189 -39 78 -120 305 -120 335 0 7 -15 24 -34 37 -66 45
-71 62 -72 279 0 107 3 209 7 225 5 17 23 46 41 64 l33 33 1 327 c1 344 2 359
35 446 100 267 373 398 809 390 85 -2 180 -8 210 -13z"/>
</g>
</svg>
